<?xml version="1.0" standalone="no"?><!DOCTYPE svg PUBLIC "-//W3C//DTD SVG 1.1//EN" "http://www.w3.org/Graphics/SVG/1.1/DTD/svg11.dtd"><svg class="icon" width="32px" height="32.00px" viewBox="0 0 1024 1024" version="1.1" xmlns="http://www.w3.org/2000/svg"><path d="M512.3 511.6m-447.3 0a447.3 447.3 0 1 0 894.6 0 447.3 447.3 0 1 0-894.6 0Z" fill="#2eb5e9" /><path d="M772.3 329.7h-94.9v29.5c0 16.6-13.4 30-30 30s-30-13.4-30-30v-29.5h-214v29.5c0 16.6-13.4 30-30 30s-30-13.4-30-30v-29.5h-93.1c-16.6 0-30 13.4-30 30v183.5c47.4 25.2 79.7 75.1 79.7 132.5 0 22.5-5 43.8-13.8 63h486.2c16.6 0 30-13.4 30-30v-349c-0.1-16.6-13.5-30-30.1-30z" fill="#ffffff" /><path d="M373.6 382.4c-11 0-20-9-20-20v-79c0-11 9-20 20-20s20 9 20 20v79c0 11.1-8.9 20-20 20zM647.6 382.4c-11 0-20-9-20-20v-79c0-11 9-20 20-20s20 9 20 20v79c0 11.1-8.9 20-20 20z" fill="#ffffff" /><path d="M320.1 456.3h60v60h-60zM429.4 456.3h60v60h-60zM544.7 456.3h60v60h-60zM655.4 456.3h60v60h-60zM320.1 570.3h60v60h-60zM429.4 570.3h60v60h-60zM544.7 570.3h60v60h-60zM655.4 570.3h60v60h-60z" fill="#2eb5e9" /><path d="M300 675.7c0-57.4-32.3-107.3-79.7-132.5v165.5c0 16.6 13.4 30 30 30h35.8c8.9-19.2 13.9-40.5 13.9-63z" fill="#ffffff" /></svg>