<?xml version="1.0" standalone="no"?><!DOCTYPE svg PUBLIC "-//W3C//DTD SVG 1.1//EN" "http://www.w3.org/Graphics/SVG/1.1/DTD/svg11.dtd"><svg t="1645622545489" class="icon" viewBox="0 0 1024 1024" version="1.1" xmlns="http://www.w3.org/2000/svg" p-id="4248" xmlns:xlink="http://www.w3.org/1999/xlink" width="200" height="200"><defs><style type="text/css"></style></defs><path d="M519.06990501 9.2511995c-276.51184005 0-500.3921655 223.88032544-500.39216551 500.39216549s223.88032544 500.3921655 500.39216551 500.3921655 500.3921655-223.88032544 500.3921655-500.3921655C1018.67652601 233.13152494 794.79620057 9.2511995 519.06990501 9.2511995z m296.93601058 597.79974518l-1.57109047 1.5710905-274.94074957 274.94075105c-3.9277255 3.9277255-8.64099551 5.49881452-14.13981005 5.49881452s-10.21208453-2.35663501-14.13981001-5.49881452l-274.94075104-274.94075105c-83.26776967-84.05331566-83.26776967-219.16705543 0-303.22037106 23.56635005-24.35189456 53.4170606-41.63388558 85.62440468-51.84597011 31.42179956-9.42654002 64.41468963-12.56871953 96.6220352-7.85544953 10.99763052 1.5710905 18.06753553 11.78317502 16.49644502 21.99525954-1.5710905 10.99763052-11.78317502 18.06753553-21.99525955 16.49644505-95.8364907-14.13981003-183.81753037 52.63151461-197.95734038 147.68246078-7.85544953 54.2026051 10.21208453 109.19075472 49.48933509 147.68246077l261.58648552 261.58648552 261.58648552-261.58648552c68.34241515-68.34241515 68.34241515-179.10426036 0-246.66113098-68.34241515-68.34241515-179.10426036-68.34241515-246.66113098 0L385.52725425 486.86255946c-7.85544953 7.85544953-20.42417054 7.06990501-28.27962004-0.78554452-7.06990501-7.85544953-7.06990501-19.63862455 0-27.49407554l153.18127529-153.18127528c83.26776967-84.05331566 219.16705543-84.83886017 303.22037111-1.57108905 84.83886017 83.26776967 85.62440467 219.16705543 2.35663498 303.22036961z m-72.27014062-200.31397539c-8.64099551-5.49881452-11.78317502-16.49644503-6.28435903-25.13743906s16.49644503-11.78317502 25.13743907-6.2843605l0.78554598 0.7855445c25.13744054 15.71090051 61.27251012 67.55687062 20.42416906 146.1113703-3.14217952 6.2843605-9.42654002 10.21208453-16.49644504 10.21208601-10.21208453 0-18.06753553-7.85544953-18.06753407-18.06753553 0-3.14217952 0.78554451-5.49881452 2.35663503-8.64099551 35.34952507-69.91350563-6.2843605-98.19312569-7.855451-98.97867021z m-3.14217952 146.89691629c7.06990501 7.06990501 7.85544953 18.85308003 0.78554451 25.92298504l-0.78554451 0.78554453-141.39810026 141.39810025c-3.14217952 3.14217952-7.85544953 5.49881452-12.56871954 5.49881454-10.21208453 0-18.06753553-7.85544953-18.06753553-18.06753407 0-4.71327001 1.5710905-9.42654002 5.4988145-12.56872099l141.39810029-141.39810029c6.2843605-7.85544953 18.06753553-8.64099551 25.13744054-1.57108901z" fill="#48B0EB" p-id="4249"></path></svg>