<?xml version="1.0" standalone="no"?><!DOCTYPE svg PUBLIC "-//W3C//DTD SVG 1.1//EN" "http://www.w3.org/Graphics/SVG/1.1/DTD/svg11.dtd"><svg t="1645622551578" class="icon" viewBox="0 0 1024 1024" version="1.1" xmlns="http://www.w3.org/2000/svg" p-id="4397" xmlns:xlink="http://www.w3.org/1999/xlink" width="200" height="200"><defs><style type="text/css"></style></defs><path d="M498.0224 485.82144h89.3952v110.72512H498.0224zM546.94912 456.39168l11.02848-52.97664 12.13952 52.97664h17.65888l11.0336-69.89824h-12.50304l-11.40736 52.60288-11.40736-52.60288h-11.41248l-11.41248 52.60288S528.896 386.85696 528.896 386.49344h-11.40736l11.40736 69.89824h18.05312zM389.49888 485.82144h81.30048v17.65888H389.49888zM389.49888 532.16768h81.66912v17.65888H389.49888zM505.74848 444.98944h-34.94912v-17.65888h34.94912v-11.77088h-34.94912v-17.65888h34.94912v-11.40736h-46.72v69.89824h46.72zM406.05184 408.9344l23.9104 47.45728h17.65888V386.49344h-17.65888v46.72l-23.17312-46.72s-17.65888 0-17.65888 0.36864v69.89824h17.29024l-0.36864-47.82592z" fill="#FE9B58" p-id="4398"></path><path d="M512 0.85504C229.69856 0.85504 0.85504 229.70368 0.85504 512c0 282.2912 228.84864 511.13984 511.14496 511.13984 282.30144 0 511.13984-228.84864 511.13984-511.13984S794.30144 0.85504 512 0.85504zM348.66176 636.65152v-282.1632c0-4.41344 3.67616-8.45824 8.82688-8.82688h279.95648c4.7872 0 8.83712 4.0448 8.83712 8.82688v282.1632c0 4.79744-4.04992 8.832-8.83712 8.832H357.48864a8.95488 8.95488 0 0 1-8.82688-8.832z m353.16736 30.8992v27.60192c0 2.20672-1.47456 3.6864-3.68128 3.6864H414.87872c-2.20672 0-3.67616-1.47968-3.67616-3.6864v-27.60192c0-2.2016 1.46944-3.67104 3.67616-3.67104h252.00128V421.07392c0-2.20672 1.46944-3.67616 3.67616-3.67616h27.5968c2.21184 0 3.6864 1.46944 3.6864 3.67616l-0.01024 246.4768z" fill="#FE9B58" p-id="4399"></path><path d="M389.49888 578.89792h81.66912v17.64864H389.49888z" fill="#FE9B58" p-id="4400"></path></svg>