<?xml version="1.0" standalone="no"?><!DOCTYPE svg PUBLIC "-//W3C//DTD SVG 1.1//EN" "http://www.w3.org/Graphics/SVG/1.1/DTD/svg11.dtd"><svg t="1645622266552" class="icon" viewBox="0 0 1024 1024" version="1.1" xmlns="http://www.w3.org/2000/svg" p-id="2670" xmlns:xlink="http://www.w3.org/1999/xlink" width="200" height="200"><defs><style type="text/css"></style></defs><path d="M99.2 174.8h824.7c14.7 0 26.7 11.9 26.7 26.6v620.1c0 14.7-11.9 26.7-26.7 26.7H99.2c-14.7 0-26.7-11.9-26.7-26.7v-620c0.1-14.7 12-26.7 26.7-26.7z" fill="#FFFFFF" p-id="2671"></path><path d="M910.6 826.9H113.4c-17.5 0-31.6-14.2-31.6-31.6v25.9c0 12.8 10.4 23.2 23.2 23.2h814.1c12.8 0 23.2-10.4 23.2-23.2v-25.9c-0.1 17.5-14.2 31.6-31.7 31.6z" fill="#BBC9FA" p-id="2672"></path><path d="M918.9 858.2H105.1c-22.8 0-41.2-18.5-41.3-41.2V207c0-22.8 18.5-41.2 41.3-41.2h813.8c22.8 0 41.2 18.5 41.3 41.2v610c-0.1 22.7-18.5 41.2-41.3 41.2zM105.1 183.7c-12.9 0-23.3 10.4-23.3 23.3v610c0 12.9 10.5 23.3 23.3 23.3h813.8c12.9 0 23.3-10.4 23.3-23.3V207c0-12.9-10.5-23.3-23.3-23.3H105.1z" fill="#3F63F6" p-id="2673"></path><path d="M950.608 261.526l-877.9 3.678-0.075-17.9 877.9-3.678z" fill="#3F63F6" p-id="2674"></path><path d="M114 216.8m-10.3 0a10.3 10.3 0 1 0 20.6 0 10.3 10.3 0 1 0-20.6 0Z" fill="#3F63F6" p-id="2675"></path><path d="M149.9 216.8m-10.3 0a10.3 10.3 0 1 0 20.6 0 10.3 10.3 0 1 0-20.6 0Z" fill="#3F63F6" p-id="2676"></path><path d="M187.5 216.8m-10.3 0a10.3 10.3 0 1 0 20.6 0 10.3 10.3 0 1 0-20.6 0Z" fill="#3F63F6" p-id="2677"></path><path d="M282.1 207.7h505.3c5.1 0 9.3 4.1 9.3 9.3 0 5.1-4.1 9.3-9.3 9.3H282.1c-5.1 0-9.3-4.1-9.3-9.3 0-5.2 4.2-9.3 9.3-9.3z" fill="#D0D9FB" p-id="2678"></path><path d="M358.3 490.4m-71.8 0a71.8 71.8 0 1 0 143.6 0 71.8 71.8 0 1 0-143.6 0Z" fill="#D0D9FB" p-id="2679"></path><path d="M358.3 555.6c-45.5 0-82.3-36.8-82.3-82.3s36.8-82.3 82.3-82.3 82.3 36.8 82.3 82.3c-0.1 45.4-36.9 82.2-82.3 82.3z m0-148.3c-36.5 0-66 29.5-66 66s29.5 66 66 66 66-29.5 66-66c0-36.4-29.6-66-66-66z" fill="#3F63F6" p-id="2680"></path><path d="M193.8 747.3l39.1-151c0-11.7 9.5-21.2 21.2-21.2h45c8.8 0 16.7 5.6 19.5 14 7.8 23.6 33.3 36.4 56.9 28.6a45.23 45.23 0 0 0 28.6-28.6c2.8-8.4 10.7-14 19.5-14h38.9c10.6 0 19.6 7.8 21 18.3 0.3 2.3 0.7 4.6 1.2 6.9l38.1 147.1" fill="#D0D9FB" p-id="2681"></path><path d="M523.2 751.3c-3.7 0-7-2.5-7.9-6.1l-41.1-158.8c-0.6-2.5-1.1-5.1-1.4-7.7-0.9-6.2-6.2-10.9-12.5-10.9h-38.1c-5.1 0-9.7 3.2-11.4 8.1-9 27.4-38.6 42.3-66 33.3-15.7-5.2-28.1-17.5-33.3-33.3-1.6-4.9-6.2-8.1-11.4-8.1H256c-7 0-12.6 5.6-12.6 12.6v1L201 745.2c-1 4.4-5.3 7.2-9.7 6.2-4.4-1-7.2-5.3-6.2-9.7 0-0.2 0.1-0.4 0.1-0.5l41.9-161.8c0.6-15.5 13.4-27.8 28.9-27.8h44.1c12.2-0.1 23.1 7.7 26.9 19.3 6.2 18.8 26.5 29.1 45.4 22.9 10.8-3.6 19.3-12 22.9-22.9 3.8-11.6 14.7-19.4 26.9-19.3h38.1c14.5 0 26.7 10.7 28.7 25 0.2 2 0.6 3.9 1 5.8L531.1 741c1.1 4.4-1.5 8.8-5.9 10-0.6 0.2-1.3 0.2-2 0.3zM812.8 751.3H800v-10.8h1.9v-1.8h10.9zM785.9 751.3h-14.1v-10.8h14.1v10.8z m-28.2 0h-14.1v-10.8h14.1v10.8z m-28.3 0h-14.1v-10.8h14.1v10.8z m-28.2 0h-14.1v-10.8h14.1v10.8z m-28.2 0h-14.1v-10.8H673v10.8zM644.7 751.3h-12.8v-12.6h11v1.8h1.8zM642.9 724.3h-11v-14.5h11v14.5z m0-28.9h-11V681h11v14.4z m0-28.9h-11V652h11v14.5z m0-28.9h-11v-14.4h11v14.4z m0-28.9h-11v-14.5h11v14.5zM642.9 579.8h-11v-12.6h12.8V578h-1.8zM785.9 578h-14.1v-10.8h14.1V578z m-28.2 0h-14.1v-10.8h14.1V578z m-28.3 0h-14.1v-10.8h14.1V578z m-28.2 0h-14.1v-10.8h14.1V578z m-28.2 0h-14.1v-10.8H673V578zM812.8 579.8h-10.9V578H800v-10.8h12.8zM812.8 724.3h-11v-14.5h11v14.5z m0-28.9h-11V681h11v14.4z m0-28.9h-11V652h11v14.5z m0-28.9h-11v-14.4h11v14.4z m0-28.9h-11v-14.5h11v14.5z" fill="#3F63F6" p-id="2682"></path><path d="M631 473.8h180.9c0.5 0 1 0.4 1 1v7.1c0 0.5-0.4 1-1 1H631c-0.5 0-1-0.4-1-1v-7.1c0-0.6 0.4-1 1-1z" fill="#D0D9FB" p-id="2683"></path><path d="M631 467.4h180.9c0.5 0 1 0.4 1 1v10.8c0 0.5-0.4 1-1 1H631c-0.5 0-1-0.4-1-1v-10.8c0-0.6 0.4-1 1-1z" fill="#3F63F6" p-id="2684"></path><path d="M631 511.6h129.7c0.5 0 1 0.4 1 1v7.1c0 0.5-0.4 1-1 1H631c-0.5 0-1-0.4-1-1v-7.1c0-0.6 0.4-1 1-1z" fill="#D0D9FB" p-id="2685"></path><path d="M631 505.2h129.7c0.5 0 1 0.4 1 1V517c0 0.5-0.4 1-1 1H631c-0.5 0-1-0.4-1-1v-10.8c0-0.5 0.4-1 1-1z" fill="#3F63F6" p-id="2686"></path><path d="M639.7 360.2h82.7c2.3 0 4.1 1.8 4.1 4.1v71.2c0 2.3-1.8 4.1-4.1 4.1h-82.7c-2.3 0-4.1-1.8-4.1-4.1v-71.2c0-2.2 1.8-4.1 4.1-4.1z" fill="#D0D9FB" p-id="2687"></path><path d="M720.7 433.7h-79.3c-5.5 0-10.1-5.4-10.1-12v-65.5c0-6.6 4.5-12 10.1-12h79.3c5.5 0 10.1 5.4 10.1 12v65.5c-0.1 6.6-4.6 12-10.1 12z m-79.3-79.5c-1 0.1-1.7 0.9-1.6 1.9v65.5c-0.1 1 0.6 1.8 1.6 1.9h79.3c1-0.1 1.7-0.9 1.6-1.9v-65.5c0.1-1-0.6-1.8-1.6-1.9h-79.3z" fill="#3F63F6" p-id="2688"></path></svg>