<?xml version="1.0" standalone="no"?><!DOCTYPE svg PUBLIC "-//W3C//DTD SVG 1.1//EN" "http://www.w3.org/Graphics/SVG/1.1/DTD/svg11.dtd"><svg t="1645622557173" class="icon" viewBox="0 0 1024 1024" version="1.1" xmlns="http://www.w3.org/2000/svg" p-id="4548" xmlns:xlink="http://www.w3.org/1999/xlink" width="200" height="200"><defs><style type="text/css"></style></defs><path d="M512.007389 24.376527v487.631091H268.138521a485.696228 485.696228 0 0 0-121.881111-322.527891A486.366574 486.366574 0 0 1 512.007389 24.376527z" fill="#FF505E" p-id="4549"></path><path d="M512.007389 536.38384H268.138521a24.376222 24.376222 0 0 1-24.376222-24.376222A462.569287 462.569287 0 0 0 127.975243 205.67468a24.376222 24.376222 0 0 1 0-32.268024A510.712326 510.712326 0 0 1 512.007389 0.000305a24.376222 24.376222 0 0 1 24.376222 24.376222v487.631091a24.376222 24.376222 0 0 1-24.376222 24.376222z m-220.025876-48.752445h195.649654V49.392625a463.574806 463.574806 0 0 0-308.831501 140.803154 511.260791 511.260791 0 0 1 113.181847 297.435616z" fill="#333333" p-id="4550"></path><path d="M877.742133 189.494962a485.772404 485.772404 0 0 0-121.881111 322.512656H512.007389V24.376527a486.44275 486.44275 0 0 1 365.734744 165.118435z" fill="#FF505E" p-id="4551"></path><path d="M755.861022 536.38384H512.007389a24.376222 24.376222 0 0 1-24.376222-24.376222V24.376527a24.376222 24.376222 0 0 1 24.376222-24.376222 510.803737 510.803737 0 0 1 384.016911 173.37588 24.376222 24.376222 0 0 1 0 32.252789 462.660698 462.660698 0 0 0-115.787056 306.378644 24.376222 24.376222 0 0 1-24.376222 24.376222z m-219.477411-48.752445h195.680124a511.336967 511.336967 0 0 1 113.166612-297.420381 463.696687 463.696687 0 0 0-308.846736-140.818389z" fill="#333333" p-id="4552"></path><path d="M512.007389 1023.999695a24.376222 24.376222 0 0 1-24.376222-24.376222V512.007618a24.376222 24.376222 0 0 1 24.376222-24.376223h243.853633a24.376222 24.376222 0 0 1 24.376222 24.376223 462.614993 462.614993 0 0 0 115.787056 306.363408 24.376222 24.376222 0 0 1 0 32.268024 510.864677 510.864677 0 0 1-384.016911 173.360645z m24.376222-487.615855V974.59214a463.650982 463.650982 0 0 0 308.846736-140.803154 511.321732 511.321732 0 0 1-113.166612-297.405146z" fill="#333333" p-id="4553"></path><path d="M512.007389 1023.999695A510.849442 510.849442 0 0 1 127.975243 850.654285a24.376222 24.376222 0 0 1 0-32.252789 462.599757 462.599757 0 0 0 115.787056-306.393878 24.376222 24.376222 0 0 1 24.376222-24.376223h243.762222a24.376222 24.376222 0 0 1 24.376222 24.376223v487.615855a24.376222 24.376222 0 0 1-24.269576 24.376222zM178.799666 833.819456a463.574806 463.574806 0 0 0 308.831501 140.772684V536.38384H291.981513a511.336967 511.336967 0 0 1-113.181847 297.435616z" fill="#333333" p-id="4554"></path><path d="M999.608009 512.007618h-243.762222a485.772404 485.772404 0 0 1 121.881111-322.512656 485.772404 485.772404 0 0 1 121.881111 322.512656z" fill="#FF505E" p-id="4555"></path><path d="M999.608009 536.38384h-243.762222a24.376222 24.376222 0 0 1-24.376222-24.376222 511.336967 511.336967 0 0 1 127.975167-338.631433 24.376222 24.376222 0 0 1 18.282166-8.257445 24.376222 24.376222 0 0 1 18.282167 8.257445 511.443613 511.443613 0 0 1 127.975167 338.631433 24.376222 24.376222 0 0 1-24.376223 24.376222z m-218.730889-48.752445H974.591911a462.630228 462.630228 0 0 0-96.849778-259.957175 462.645463 462.645463 0 0 0-96.865013 259.957175z" fill="#333333" p-id="4556"></path><path d="M877.742133 858.88126a24.376222 24.376222 0 0 1-18.282166-8.24221 511.397907 511.397907 0 0 1-127.975167-338.631432 24.376222 24.376222 0 0 1 24.376222-24.376223h243.762223a24.376222 24.376222 0 0 1 24.376222 24.376223 511.474083 511.474083 0 0 1-127.975167 338.631432 24.376222 24.376222 0 0 1-18.282167 8.24221z m-96.865013-322.49742a462.554052 462.554052 0 0 0 96.865013 259.94194 462.614993 462.614993 0 0 0 96.849778-259.94194z" fill="#333333" p-id="4557"></path><path d="M268.138521 512.007618H24.376298a485.711463 485.711463 0 0 1 121.881112-322.527891 485.696228 485.696228 0 0 1 121.881111 322.527891z" fill="#FF505E" p-id="4558"></path><path d="M268.138521 536.38384H24.376298a24.376222 24.376222 0 0 1-24.376222-24.376222 511.352202 511.352202 0 0 1 127.975167-338.661903 24.376222 24.376222 0 0 1 36.564333 0 511.352202 511.352202 0 0 1 127.975167 338.661903 24.376222 24.376222 0 0 1-24.376222 24.376222z m-218.79183-48.752445h193.821437A462.599757 462.599757 0 0 0 146.25741 227.64375a462.614993 462.614993 0 0 0-96.865014 259.987645z" fill="#333333" p-id="4559"></path><path d="M146.25741 858.91173a24.376222 24.376222 0 0 1-18.282167-8.257445A511.352202 511.352202 0 0 1 0.000076 512.007618a24.376222 24.376222 0 0 1 24.376222-24.376223h243.762223a24.376222 24.376222 0 0 1 24.376222 24.376223 511.352202 511.352202 0 0 1-127.975167 338.646667 24.376222 24.376222 0 0 1-18.282166 8.257445z m-96.895484-322.52789A462.569287 462.569287 0 0 0 146.25741 796.35625a462.554052 462.554052 0 0 0 96.880248-259.97241z" fill="#333333" p-id="4560"></path></svg>