<?xml version="1.0" standalone="no"?><!DOCTYPE svg PUBLIC "-//W3C//DTD SVG 1.1//EN" "http://www.w3.org/Graphics/SVG/1.1/DTD/svg11.dtd"><svg t="1645622262021" class="icon" viewBox="0 0 1024 1024" version="1.1" xmlns="http://www.w3.org/2000/svg" p-id="2354" xmlns:xlink="http://www.w3.org/1999/xlink" width="200" height="200"><defs><style type="text/css"></style></defs><path d="M512 0C229.229714 0 0 229.229714 0 512s229.229714 512 512 512 512-229.229714 512-512S794.770286 0 512 0zM246.023314 303.645257a21.942857 21.942857 0 0 1 21.942857-21.942857h488.067658a21.942857 21.942857 0 0 1 21.942857 21.942857v372.348343a21.942857 21.942857 0 0 1-21.942857 21.942857H267.966171a21.942857 21.942857 0 0 1-21.942857-21.942857z m574.976 416.709486a21.942857 21.942857 0 0 1-21.942857 21.942857H224.943543a21.942857 21.942857 0 0 1-21.942857-21.942857 21.942857 21.942857 0 0 1 21.942857-21.942857h574.112914a21.942857 21.942857 0 0 1 21.942857 21.942857z" fill="#dbdbdb" p-id="2355"></path><path d="M267.966171 697.936457h488.067658a21.942857 21.942857 0 0 0 21.942857-21.942857V303.645257a21.942857 21.942857 0 0 0-21.942857-21.942857H267.966171a21.942857 21.942857 0 0 0-21.942857 21.942857v372.348343a21.942857 21.942857 0 0 0 21.942857 21.942857z m243.565715-339.968a121.468343 121.468343 0 1 1-121.424457 121.461029 121.468343 121.468343 0 0 1 121.461028-121.461029z" fill="#6C6CEA" p-id="2356"></path><path d="M203.000686 698.411886l618.005943 0 0 43.885714-618.005943 0 0-43.885714Z" fill="#728CDD" p-id="2357"></path><path d="M511.568457 600.897829a121.468343 121.468343 0 1 0-121.461028-121.468343 121.468343 121.468343 0 0 0 121.461028 121.468343z m0-212.611658a14.628571 14.628571 0 1 1-14.628571 14.628572 14.628571 14.628571 0 0 1 14.628571-14.628572z m0 53.013943a63.634286 63.634286 0 1 1-63.634286 63.634286 63.634286 63.634286 0 0 1 63.634286-63.634286z" fill="#7A94CC" p-id="2358"></path><path d="M511.568457 568.568686a63.634286 63.634286 0 1 0-63.634286-63.634286 63.634286 63.634286 0 0 0 63.634286 63.634286z m0-114.834286a51.2 51.2 0 1 1-51.2 51.2 51.2 51.2 0 0 1 51.2-51.2z" fill="#CCD9FF" p-id="2359"></path><path d="M511.568457 504.9344m-51.2 0a51.2 51.2 0 1 0 102.4 0 51.2 51.2 0 1 0-102.4 0Z" fill="#FFFFFF" p-id="2360"></path><path d="M511.568457 402.914743m-14.628571 0a14.628571 14.628571 0 1 0 29.257143 0 14.628571 14.628571 0 1 0-29.257143 0Z" fill="#FFFFFF" p-id="2361"></path></svg>