<?xml version="1.0" standalone="no"?><!DOCTYPE svg PUBLIC "-//W3C//DTD SVG 1.1//EN" "http://www.w3.org/Graphics/SVG/1.1/DTD/svg11.dtd"><svg t="1645622560512" class="icon" viewBox="0 0 1024 1024" version="1.1" xmlns="http://www.w3.org/2000/svg" p-id="4708" xmlns:xlink="http://www.w3.org/1999/xlink" width="200" height="200"><defs><style type="text/css"></style></defs><path d="M666.458101 257.887821H358.91486c-15.10257 0-27.344804 12.242235-27.344804 27.344805V740.254749c0 15.10257 12.242235 27.344804 27.344804 27.344804h307.428827c15.10257 0 27.344804-12.242235 27.344805-27.344804V285.232626c0-15.10257-12.242235-27.344804-27.230391-27.344805z m-87.068604 107.548604h54.575196v48.854525h-54.575196v-48.854525z m-94.047821-25.399777H540.031285v74.368715h-54.575196v-74.368715zM391.293855 308.458547h54.575195v105.946816H391.293855v-105.946816zM622.866592 710.507263c-29.404246 29.404246-68.533631 45.65095-110.180112 45.650949s-80.775866-16.246704-110.180111-45.650949c-29.404246-29.404246-45.65095-68.533631-45.65095-110.180112s16.246704-80.775866 45.65095-110.180112c29.404246-29.404246 68.533631-45.65095 110.180111-45.65095s80.775866 16.246704 110.180112 45.65095c29.404246 29.404246 45.65095 68.533631 45.65095 110.180112s-16.132291 80.775866-45.65095 110.180112z m-110.180112-211.435978c-27.001564 0-52.515754 10.526034-71.622793 29.633073-39.472626 39.472626-39.472626 103.772961 0 143.245586s103.772961 39.472626 143.245587 0c19.107039-19.107039 29.633073-44.506816 29.633072-71.622793 0-27.001564-10.526034-52.515754-29.633072-71.622793-19.107039-19.107039-44.621229-29.633073-71.622794-29.633073z m81.004693 101.255866c0 15.10257-12.242235 27.344804-27.344804 27.344804h-26.315084v26.429498c0 15.10257-12.242235 27.344804-27.344805 27.344804s-27.344804-12.242235-27.344804-27.344804v-26.429498h-26.429497c-15.10257 0-27.344804-12.242235-27.344805-27.344804s12.242235-27.344804 27.344805-27.344805h26.429497v-26.429497c0-15.10257 12.242235-27.344804 27.344804-27.344804s27.344804 12.242235 27.344805 27.344804v26.429497h26.315084c15.10257 0 27.344804 12.242235 27.344804 27.344805zM512 0C229.284469 0 0 229.284469 0 512S229.284469 1024 512 1024 1024 794.715531 1024 512 794.715531 0 512 0z m236.378101 740.254749c0 45.193296-36.726704 81.92-81.92 81.92H358.91486c-45.193296 0-81.92-36.726704-81.92-81.92V285.232626c0-45.193296 36.726704-81.92 81.92-81.92h307.428827c45.193296 0 81.92 36.726704 81.92 81.92V740.254749z" fill="#1A70CC" p-id="4709"></path></svg>