<?xml version="1.0" standalone="no"?><!DOCTYPE svg PUBLIC "-//W3C//DTD SVG 1.1//EN" "http://www.w3.org/Graphics/SVG/1.1/DTD/svg11.dtd"><svg t="1645622264319" class="icon" viewBox="0 0 1024 1024" version="1.1" xmlns="http://www.w3.org/2000/svg" p-id="2509" xmlns:xlink="http://www.w3.org/1999/xlink" width="200" height="200"><defs><style type="text/css"></style></defs><path d="M211.5 169.8h565.6v662H211.5z" fill="#F4F4F4" p-id="2510"></path><path d="M800.9 777.1H378.3c-44.2 0-80-35.8-80-80V208c0-44.2 35.8-80 80-80H816c44.2 0 80 35.8 80 80v474.1c0 52.4-42.6 95-95.1 95z" fill="#FFECB6" p-id="2511"></path><path d="M759.2 343.3H460.8c-27.5 0-50-22.5-50-50v-22.1c0-27.5 22.5-50 50-50h298.5c27.5 0 50 22.5 50 50v22.1c-0.1 27.5-22.6 50-50.1 50z" fill="#F7931E" p-id="2512"></path><path d="M776.4 507.9h-307c-11 0-20-9-20-20s9-20 20-20h307c11 0 20 9 20 20s-9 20-20 20zM776.4 639.6h-307c-11 0-20-9-20-20s9-20 20-20h307c11 0 20 9 20 20s-9 20-20 20z" fill="#F4BA64" p-id="2513"></path><path d="M680.7 256.5h-65.9c-5.3 0-9.6-4.3-9.6-9.6s4.3-9.6 9.6-9.6h65.9c5.3 0 9.6 4.3 9.6 9.6s-4.3 9.6-9.6 9.6z" fill="" p-id="2514"></path><path d="M751.4 378.6H417.2c-23 0-41.8-18.7-41.8-41.8V279c0-23 18.7-41.8 41.8-41.8H557c5.3 0 9.6 4.3 9.6 9.6s-4.3 9.6-9.6 9.6H417.2c-12.4 0-22.5 10.1-22.5 22.5v57.8c0 12.4 10.1 22.5 22.5 22.5h334.2c12.4 0 22.5-10.1 22.5-22.5V279c0-12.4-10.1-22.5-22.5-22.5h-19.3c-5.3 0-9.6-4.3-9.6-9.6s4.3-9.6 9.6-9.6h19.3c23 0 41.8 18.7 41.8 41.8v57.8c0 23-18.8 41.7-41.8 41.7z" fill="" p-id="2515"></path><path d="M799.6 777.1c53.2 0 96.4-43.2 96.4-96.4h-96.4v96.4z" fill="#F4BA64" p-id="2516"></path><path d="M450.8 868.4H215.9c-27.5 0-50-22.5-50-50V335.2c0-27.5 22.5-50 50-50h234.9c27.5 0 50 22.5 50 50v483.2c0 27.5-22.5 50-50 50z" fill="#FFDB69" p-id="2517"></path><path d="M408.3 896H201.9c-40.8 0-73.9-33.2-73.9-73.9V367.4c0-40.8 33.2-73.9 73.9-73.9h1.6c5.3 0 9.6 4.3 9.6 9.6s-4.3 9.6-9.6 9.6h-1.6c-30.1 0-54.6 24.5-54.6 54.6v454.6c0 30.1 24.5 54.6 54.6 54.6h206.4c30.1 0 54.6-24.5 54.6-54.6V367.4c0-30.1-24.5-54.6-54.6-54.6H272.6c-5.3 0-9.6-4.3-9.6-9.6s4.3-9.6 9.6-9.6h135.7c40.8 0 73.9 33.2 73.9 73.9v454.6c0 40.7-33.2 73.9-73.9 73.9z" fill="" p-id="2518"></path><path d="M305.1 820m-34.6 0a34.6 34.6 0 1 0 69.2 0 34.6 34.6 0 1 0-69.2 0Z" fill="#F2F2F2" p-id="2519"></path><path d="M393.5 756.4H216.7c-16.5 0-30-13.5-30-30V393.8c0-16.5 13.5-30 30-30h176.7c16.5 0 30 13.5 30 30v332.6c0.1 16.5-13.4 30-29.9 30z" fill="#FFECB6" p-id="2520"></path><path d="M305.1 560.4m-65.7 0a65.7 65.7 0 1 0 131.4 0 65.7 65.7 0 1 0-131.4 0Z" fill="#F7931E" p-id="2521"></path><path d="M345.1 532.8c-2.3-2.3-6-2.3-8.3 0l-42.7 42.7-20.7-20.7c-2.3-2.3-6-2.3-8.3 0-2.3 2.3-2.3 6 0 8.3l24.8 24.8c2.3 2.3 6 2.3 8.3 0l46.9-46.9c2.2-2.2 2.2-5.9 0-8.2z" fill="#FFECB6" p-id="2522"></path></svg>