<?xml version="1.0" standalone="no"?><!DOCTYPE svg PUBLIC "-//W3C//DTD SVG 1.1//EN" "http://www.w3.org/Graphics/SVG/1.1/DTD/svg11.dtd"><svg t="1645622258406" class="icon" viewBox="0 0 1024 1024" version="1.1" xmlns="http://www.w3.org/2000/svg" p-id="2204" xmlns:xlink="http://www.w3.org/1999/xlink" width="200" height="200"><defs><style type="text/css"></style></defs><path d="M512 0a512 512 0 1 0 512 512A512 512 0 0 0 512 0z m206.186667 702.186667a64 64 0 0 1-64 64H369.706667a64 64 0 0 1-64-64V378.666667a64 64 0 0 1 64-64h284.48a64 64 0 0 1 64 64z" fill="#17abe3" p-id="2205"></path><path d="M654.186667 336H369.706667a42.666667 42.666667 0 0 0-42.666667 42.666667v323.52a42.666667 42.666667 0 0 0 42.666667 42.666666h284.48a42.666667 42.666667 0 0 0 42.666666-42.666666V378.666667a42.666667 42.666667 0 0 0-42.666666-42.666667z m-68.8 64.746667H661.333333a10.666667 10.666667 0 0 1 0 21.333333h-75.946666a10.666667 10.666667 0 0 1 0-21.333333z m0 79.253333H661.333333a10.666667 10.666667 0 0 1 0 21.333333h-75.946666a10.666667 10.666667 0 0 1 0-21.333333z m-226.133334-68.586667a21.333333 21.333333 0 0 1 21.333334-21.333333h133.333333a21.333333 21.333333 0 0 1 21.333333 21.333333v74.666667a21.333333 21.333333 0 0 1-21.333333 21.333333h-133.333333a21.333333 21.333333 0 0 1-21.333334-21.333333z m303.04 273.28H369.92a10.666667 10.666667 0 0 1 0-21.333333h292.373333a10.666667 10.666667 0 0 1 0 21.333333z m0-79.893333H369.92a10.666667 10.666667 0 0 1 0-21.333333h292.373333a10.666667 10.666667 0 1 1 0 21.333333z" fill="#17abe3" p-id="2206"></path></svg>