<?xml version="1.0" standalone="no"?><!DOCTYPE svg PUBLIC "-//W3C//DTD SVG 1.1//EN" "http://www.w3.org/Graphics/SVG/1.1/DTD/svg11.dtd"><svg t="1645622687441" class="icon" viewBox="0 0 1024 1024" version="1.1" xmlns="http://www.w3.org/2000/svg" p-id="5621" xmlns:xlink="http://www.w3.org/1999/xlink" width="200" height="200"><defs><style type="text/css"></style></defs><path d="M517.6 554.4m-450 0a450 450 0 1 0 900 0 450 450 0 1 0-900 0Z" fill="#0cc3dd" p-id="5622"></path><path d="M737.8 532.8L536.1 331.1c-10.7-10.7-27.6-10.7-37.6 0L296.9 532.8c-16.9 16.9-4.6 45.2 19.2 45.2h6.9c14.6 0 26.8 12.3 26.8 26.8v153.4c0 14.6 12.3 26.8 26.8 26.8h136.5c14.6 0 26.8-12.3 26.8-26.8v-105c0-14.6 12.3-26.8 26.8-26.8H602c14.6 0 26.8 12.3 26.8 26.8v105.1c0 14.6 12.3 26.8 26.8 26.8h3.8c14.6 0 26.8-12.3 26.8-26.8V604.9c0-14.6 12.3-26.8 26.8-26.8h5.4c24 0 36.3-28.4 19.4-45.3z m0 0" fill="#059490" p-id="5623"></path></svg>