<?xml version="1.0" standalone="no"?><!DOCTYPE svg PUBLIC "-//W3C//DTD SVG 1.1//EN" "http://www.w3.org/Graphics/SVG/1.1/DTD/svg11.dtd"><svg t="1645622682461" class="icon" viewBox="0 0 1024 1024" version="1.1" xmlns="http://www.w3.org/2000/svg" p-id="5471" xmlns:xlink="http://www.w3.org/1999/xlink" width="200" height="200"><defs><style type="text/css"></style></defs><path d="M0 512a512 512 0 1 0 1024 0A512 512 0 1 0 0 512z" fill="#06B666" p-id="5472"></path><path d="M747.14 232.432a83.979 83.979 0 0 0-117.57 24.922l-214.19 327.97a46.595 46.595 0 0 0-5.419 30.34l13.726 63.752-55.264 85.785a27.09 27.09 0 0 0 8.308 37.384 27.451 27.451 0 0 0 37.023-7.947l55.805-84.881 65.016-13.726a45.15 45.15 0 0 0 25.284-16.615l213.65-327.97a89.036 89.036 0 0 0-26.368-119.014z m13.907 109.263L546.495 669.663a26.368 26.368 0 0 1-16.616 11.017l-81.63 16.615a8.669 8.669 0 0 1-5.419-1.264c-1.444-1.445-2.89-2.89-2.89-4.154l-16.614-81.63a24.742 24.742 0 0 1 4.153-19.506l214.553-327.788a70.976 70.976 0 0 1 98.427-20.769 74.768 74.768 0 0 1 20.588 99.51z m-60.862-38.649a55.444 55.444 0 0 0-76.213 15.17l-9.572 13.907 24.742 16.615a10.836 10.836 0 1 1-12.28 18.06l-24.923-16.615-33.23 51.29 24.922 16.615a10.836 10.836 0 1 1-12.461 18.06l-24.923-16.615-32.508 50.93 24.923 16.614a7.585 7.585 0 0 1 4.154 6.863 16.976 16.976 0 0 1-1.445 8.308 9.752 9.752 0 0 1-15.17 2.709l-25.646-17.338-33.23 51.29 24.923 16.616a7.585 7.585 0 0 1 4.153 6.862 16.976 16.976 0 0 1-1.444 8.308 9.752 9.752 0 0 1-15.17 2.709l-24.924-16.615-6.862 11.197a20.047 20.047 0 0 0-2.71 15.17l12.281 62.307a3.07 3.07 0 0 0 2.89 2.71 4.696 4.696 0 0 0 4.154 1.444l62.307-12.461a39.732 39.732 0 0 0 12.28-8.308L713.91 377.092a52.554 52.554 0 0 0-13.725-74.046z m-391.72-9.752a19.866 19.866 0 0 0 19.504-19.324 20.769 20.769 0 0 0-19.505-19.324 19.685 19.685 0 0 0-19.505 19.324c1.445 12.461 8.308 19.324 19.325 19.324z m0-55.264a38.829 38.829 0 0 1 37.383 36.12 39.19 39.19 0 0 1-37.384 37.384 37.204 37.204 0 0 1-36.12-37.384 36.12 36.12 0 0 1 36.12-36.12z m110.707 11.017c31.966 1.445 47.136 9.752 48.4 24.923a13.364 13.364 0 0 1-13.725 15.17 54.18 54.18 0 0 1-11.017-2.709 78.741 78.741 0 0 0-23.658-4.154c-27.632 1.445-41.358 18.06-42.802 51.11 1.444 31.966 16.615 48.4 42.802 49.845a43.525 43.525 0 0 0 24.923-6.862 22.575 22.575 0 0 1 11.197-4.154c8.307 0 13.725 5.598 15.17 16.615 0 16.615-18.06 24.923-51.29 24.923-48.4-2.89-74.588-30.522-78.742-81.631 4.154-52.555 30.341-80.367 78.742-83.076z" fill="#FFFFFF" p-id="5473"></path></svg>