<?xml version="1.0" standalone="no"?><!DOCTYPE svg PUBLIC "-//W3C//DTD SVG 1.1//EN" "http://www.w3.org/Graphics/SVG/1.1/DTD/svg11.dtd"><svg t="1645622269046" class="icon" viewBox="0 0 1024 1024" version="1.1" xmlns="http://www.w3.org/2000/svg" p-id="2836" xmlns:xlink="http://www.w3.org/1999/xlink" width="200" height="200"><defs><style type="text/css"></style></defs><path d="M512 512m-448.05 0a448.05 448.05 0 1 0 896.1 0 448.05 448.05 0 1 0-896.1 0Z" fill="#e98f36" p-id="2837"></path><path d="M291.85 694.17h123.09l-8.23 30.71a7.43 7.43 0 0 1-7.18 5.51h-92.27a7.43 7.43 0 0 1-7.18-5.51z" fill="#f3ca7e" p-id="2838"></path><path d="M451.23 396.07H257.67v186.24h34.18v111.86h123.09V582.31h36.29V396.07z" fill="#FFFFFF" p-id="2839"></path><path d="M758.7 271.6v435.19a7.43 7.43 0 0 1-10.41 6.81L485 598.37V380l263.3-115.23a7.43 7.43 0 0 1 10.4 6.83zM257.67 396.07v186.24l-54.43-12.89a7.43 7.43 0 0 1-5.72-7.23V415.92a7.43 7.43 0 0 1 5.76-7.24z" fill="#f3ca7e" p-id="2840"></path></svg>